# xmcd
#
# Track frame offsets:
# 150
# 14703
# 26057
# 41686
# 55060
# 71243
# 82001
# 100626
# 115029
# 133728
#
# Disc length: 2297 seconds
#
# Revision: 0
# Processed by: cddbd v1.5.1PL0 Copyright (c) Steve Scherf et al.
# Submitted via: Axialis_AX_CDPlayer 2.6
#
DISCID=8808f70a
DTITLE=Mike Maves - This Side Of Town
DYEAR=1900
DGENRE=
TTITLE0=This Side Of Town
TTITLE1=Hot Damned
TTITLE2=Tangled Vrain
TTITLE3=Went To Memphis
TTITLE4=Our Hour Now
TTITLE5=Praying To God for Rain
TTITLE6=Four Beers
TTITLE7=Harvest Of Stone
TTITLE8=Death Rown Lament
TTITLE9=Tonight The Devil
EXTD=
EXTT0=
EXTT1=
EXTT2=
EXTT3=
EXTT4=
EXTT5=
EXTT6=
EXTT7=
EXTT8=
EXTT9=
PLAYORDER=
